<svg xmlns="http://www.w3.org/2000/svg" fill="none" viewBox="0 0 25 25">
  <path fill="#161616" d="M24.08 8.895a.542.542 0 0 1-.49.37.533.533 0 1 1 .49-.37Z"/>
  <path fill="#161616" fill-rule="evenodd" d="M1.89 13.781c.652 5.998 6.043 10.332 12.041 9.68 5.998-.653 10.332-6.044 9.68-12.042a.537.537 0 1 1 1.068-.116c.716 6.588-4.044 12.51-10.632 13.226-6.588.716-12.51-4.044-13.226-10.632C.105 7.31 4.865 1.387 11.453.671c4.863-.528 9.362 1.927 11.673 5.897a.537.537 0 1 1-.929.54A10.927 10.927 0 0 0 11.57 1.74c-6 .652-10.333 6.043-9.681 12.04Z" clip-rule="evenodd"/>
  <path fill="#161616" fill-rule="evenodd" d="M5.021 3.807a.496.496 0 0 1 .61.348C6.667 7.96 11.22 15.7 21.078 19.22a.496.496 0 0 1-.334.934C10.545 16.512 5.785 8.492 4.673 4.416a.496.496 0 0 1 .348-.609Z" clip-rule="evenodd"/>
  <path fill="#161616" fill-rule="evenodd" d="M19.031 2.605c.27.045.453.3.408.57-1.256 7.537-5.036 15.136-12.648 19.365a.496.496 0 0 1-.482-.867c7.268-4.038 10.928-11.318 12.151-18.66a.497.497 0 0 1 .571-.408Zm-8.634 6.654c1.175-2.636 1.034-5.702.529-7.72a.496.496 0 0 1 .962-.241c.54 2.159.707 5.465-.585 8.365-1.312 2.944-4.099 5.396-9.296 5.828a.496.496 0 0 1-.082-.989c4.862-.404 7.318-2.652 8.472-5.243Zm7.441 13.321c-1.387-5.925 3.042-9.59 5.94-9.59a.496.496 0 0 0 0-.992c-3.551 0-8.435 4.275-6.905 10.807a.496.496 0 1 0 .965-.226Z" clip-rule="evenodd"/>
</svg>
