<svg xmlns="http://www.w3.org/2000/svg"  fill="none" viewBox="0 0 25 24">
  <path fill="#161616" stroke="#161616" stroke-width=".5" d="M13.201 16.61h5.904c1.075 0 1.92-.855 1.92-1.879V6.68c0-1.023-.845-1.879-1.92-1.879H6.145c-1.075 0-1.92.856-1.92 1.88v8.051c0 1.024.845 1.88 1.92 1.88h1.92v3.79h.004l.002-.002 5.13-3.789Zm-4.416 4.754a1.212 1.212 0 0 1-1.68-.24 1.176 1.176 0 0 1-.239-.707V17.81h-.72c-1.723 0-3.12-1.378-3.12-3.079V6.68c-.001-1.7 1.396-3.08 3.12-3.08h12.959c1.723 0 3.12 1.379 3.12 3.08v8.051c0 1.702-1.397 3.08-3.12 3.08h-5.508l-4.812 3.553Z"/>
</svg>
