<svg xmlns="http://www.w3.org/2000/svg" fill="none" viewBox="0 0 25 25">
  <g clip-path="url(#a)">
    <path fill="#161616" d="M21.125 11.837a6.965 6.965 0 0 1 2.204 2.425c.265.485.46.996.585 1.536.125.539.195 1.09.211 1.652a6.678 6.678 0 0 1-1.98 4.77A6.952 6.952 0 0 1 20 23.66a6.77 6.77 0 0 1-4.688.223 6.468 6.468 0 0 1-1.828-.913 7.107 7.107 0 0 1-1.476-1.43 6.456 6.456 0 0 1-.996-1.84H2.625a1 1 0 0 1-1-1v-16a1 1 0 0 1 1-1h2V.95a.75.75 0 0 1 1.5 0v.75h10.5V.95a.75.75 0 0 1 1.5 0v.75h2a1 1 0 0 1 1 1v9.137Zm-18-8.637v3h16.5v-3h-1.5v.75a.75.75 0 0 1-1.5 0V3.2h-10.5v.75a.75.75 0 0 1-1.5 0V3.2h-1.5Zm7.535 15a7.766 7.766 0 0 1-.035-.75 6.677 6.677 0 0 1 1.98-4.77 6.952 6.952 0 0 1 2.145-1.441 6.682 6.682 0 0 1 4.875-.152V7.7h-16.5v10.5h7.535Zm6.715 4.5a5.1 5.1 0 0 0 2.04-.41 5.304 5.304 0 0 0 2.788-2.79 5.256 5.256 0 0 0 .422-2.05 5.1 5.1 0 0 0-.41-2.04 5.305 5.305 0 0 0-2.79-2.788 5.258 5.258 0 0 0-2.05-.422 5.1 5.1 0 0 0-2.04.41 5.304 5.304 0 0 0-2.788 2.79 5.257 5.257 0 0 0-.422 2.05c0 .727.137 1.406.41 2.039a5.305 5.305 0 0 0 2.79 2.79 5.26 5.26 0 0 0 2.05.421Zm.75-6h1.5a.75.75 0 1 1 0 1.5h-2.5a.5.5 0 0 1-.5-.5v-3.25a.75.75 0 1 1 1.5 0v2.25Z"/>
  </g>
  <defs>
    <clipPath id="a">
      <path fill="#fff" d="M.125.2h24v24h-24z"/>
    </clipPath>
  </defs>
</svg>
