<svg xmlns="http://www.w3.org/2000/svg" width="25" height="24" fill="none" viewBox="0 0 25 24">
  <path fill="#161616" d="m12.75 5.5-.54.52a.75.75 0 0 0 1.08 0l-.54-.52ZM7.751 16.42a.751.751 0 0 0-.954 1.16l.954-1.16Zm-4.659-3.009a.751.751 0 0 0 1.316-.72l-1.316.72ZM3.5 9.137c0-2.15 1.215-3.954 2.874-4.713 1.612-.737 3.778-.542 5.836 1.596l1.08-1.039C10.85 2.444 8.014 2.025 5.75 3.06 3.536 4.073 2 6.425 2 9.137h1.5ZM9.247 19.5c.513.404 1.063.834 1.62 1.16.557.326 1.193.59 1.883.59v-1.5c-.31 0-.674-.12-1.126-.385-.453-.264-.922-.628-1.448-1.043L9.247 19.5Zm7.006 0c1.426-1.125 3.25-2.413 4.68-4.024 1.457-1.64 2.567-3.673 2.567-6.339H22c0 2.198-.9 3.891-2.188 5.343-1.315 1.48-2.972 2.647-4.488 3.842l.929 1.178ZM23.5 9.137c0-2.712-1.535-5.064-3.75-6.077-2.264-1.035-5.098-.616-7.54 1.92l1.08 1.04c2.058-2.137 4.224-2.333 5.836-1.596C20.785 5.183 22 6.986 22 9.137h1.5Zm-8.176 9.185c-.526.415-.995.779-1.448 1.043-.453.264-.816.385-1.126.385v1.5c.69 0 1.326-.265 1.883-.59.558-.326 1.107-.756 1.62-1.16l-.929-1.178Zm-5.148 0c-.796-.627-1.605-1.227-2.425-1.902l-.954 1.16c.83.683 1.708 1.335 2.45 1.92l.929-1.178Zm-5.768-5.63A7.25 7.25 0 0 1 3.5 9.137H2a8.75 8.75 0 0 0 1.092 4.274l1.316-.719Z"/>
</svg>
