<svg xmlns="http://www.w3.org/2000/svg" width="27" height="27" fill="none" viewBox="0 0 27 27">
  <path stroke="#161616" stroke-linecap="round" stroke-linejoin="round" stroke-width="1.5" d="M14.926 15.28 7.18 22.6c-.37.6-.123 1.32.491 1.68 1.722.84 3.566 1.32 5.533 1.32a2.489 2.489 0 0 0 1.722-.72l9.836-9.6a2.372 2.372 0 0 0 .738-1.68c0-2.834-1.028-5.577-2.902-7.742A12.2 12.2 0 0 0 19.94 3.56m-4.678-1.792a12.552 12.552 0 0 0-8.307 1.497A12.068 12.068 0 0 0 1.597 9.64c-.369.84.37 1.56 1.23 1.56h10.377m0 0c1.358 0 2.46 1.074 2.46 2.4 0 1.325-1.101 2.4-2.46 2.4-1.358 0-2.459-1.075-2.459-2.4 0-1.326 1.101-2.4 2.46-2.4ZM8.04 21.76c-3.688-2.28-5.41-6.6-4.303-10.56"/>
  <circle cx=".75" cy=".75" r=".75" fill="#161616" transform="matrix(-1 0 0 1 18.45 1.6)"/>
</svg>
