<svg xmlns="http://www.w3.org/2000/svg" fill="none" viewBox="0 0 25 25">
  <path stroke="#161616" stroke-linecap="round" stroke-width="1.5" d="m2.25 11.4 4.063-3.25M22.25 11.4l-8.126-6.5a3 3 0 0 0-3.748 0l-.782.625m6.156.375v-2a.5.5 0 0 1 .5-.5h2.5a.5.5 0 0 1 .5.5v5m-15 1v11.5a1 1 0 0 0 1 1h14a1 1 0 0 0 1-1v-3.5m0-8v4"/>
  <path stroke="#161616" stroke-linecap="round" stroke-linejoin="round" stroke-width="1.5" d="M15.25 22.4v-5c0-1.414 0-2.121-.44-2.56-.438-.44-1.145-.44-2.56-.44s-2.121 0-2.56.44m-.44 7.56v-5"/>
  <path stroke="#161616" stroke-width="1.5" d="M14.25 9.9a2 2 0 1 1-4 0 2 2 0 0 1 4 0Z"/>
</svg>
