<svg xmlns="http://www.w3.org/2000/svg" fill="none" viewBox="0 0 25 25">
  <path fill="#161616" fill-rule="evenodd" d="M2.096 13.35c.636 5.747 5.81 9.89 11.555 9.254 5.746-.636 9.888-5.81 9.253-11.555a.766.766 0 1 1 1.522-.168c.729 6.586-4.02 12.517-10.607 13.245-6.586.729-12.517-4.02-13.245-10.607C-.155 6.933 4.594 1.002 11.18.274a11.991 11.991 0 0 1 10.718 4.464.766.766 0 1 1-1.2.954 10.46 10.46 0 0 0-9.35-3.896c-5.746.636-9.888 5.809-9.253 11.555Z" clip-rule="evenodd"/>
  <path fill="#161616" d="M22.904 7.203a.702.702 0 1 1 .154 1.396.702.702 0 0 1-.154-1.396Zm-9.018 0a1.276 1.276 0 1 1-2.553 0 1.276 1.276 0 0 1 2.553 0Zm-2.553 4.085a1.276 1.276 0 1 1 2.553 0v5.617a1.276 1.276 0 1 1-2.553 0v-5.617Z"/>
</svg>
