<svg xmlns="http://www.w3.org/2000/svg" width="25" height="25" fill="none" viewBox="0 0 25 25">
  <path fill="#161616" fill-rule="evenodd" d="M1.971 13.35c.636 5.747 5.81 9.89 11.555 9.254 5.746-.636 9.888-5.81 9.253-11.555a.766.766 0 1 1 1.522-.168c.729 6.586-4.02 12.517-10.607 13.245C7.108 24.855 1.177 20.106.45 13.52-.28 6.933 4.469 1.002 11.056.274a11.991 11.991 0 0 1 10.718 4.464.766.766 0 1 1-1.2.954 10.46 10.46 0 0 0-9.35-3.896c-5.746.636-9.888 5.809-9.253 11.555Z" clip-rule="evenodd"/>
  <path fill="#161616" d="M22.624 7.304A.702.702 0 1 1 22.78 8.7a.702.702 0 0 1-.155-1.396Z"/>
  <path fill="#161616" fill-rule="evenodd" d="M14.638.988a.75.75 0 0 1 .948.475c.564 1.69 1.212 4.374 1.558 7.487h4.231a.75.75 0 0 1 0 1.5h-4.092c.015.2.029.402.04.605a35.77 35.77 0 0 1-.032 4.895h5.084a.75.75 0 1 1 0 1.5h-5.238c-.267 2.063-.761 4.118-1.57 6.041a.75.75 0 0 1-1.383-.582c.725-1.722 1.182-3.576 1.44-5.459H9.27c.214 1.957.624 3.826 1.299 5.464a.75.75 0 0 1-1.388.571c-.756-1.837-1.198-3.907-1.42-6.035H1.875a.75.75 0 0 1 0-1.5H7.64a41.195 41.195 0 0 1-.002-4.463c.018-.349.04-.694.065-1.037H1.875a.75.75 0 0 1 0-1.5h5.96c.309-3.028.847-5.704 1.316-7.445a.75.75 0 0 1 1.448.39c-.44 1.638-.954 4.174-1.257 7.055h6.292c-.338-2.936-.95-5.451-1.47-7.013a.75.75 0 0 1 .474-.949Zm1.14 9.462h-6.57c-.028.368-.051.74-.07 1.113a39.568 39.568 0 0 0 .006 4.387h6.644c.133-1.622.132-3.245.04-4.805a38.13 38.13 0 0 0-.048-.695Z" clip-rule="evenodd"/>
</svg>
