<svg viewBox="0 0 24 25" fill="none" xmlns="http://www.w3.org/2000/svg">
<path d="M5.2236 5.70081C5.3323 5.59533 5.47844 5.53733 5.62988 5.53958C5.78133 5.54183 5.92569 5.60414 6.0312 5.71281C6.14599 5.83342 6.2089 5.99423 6.20643 6.16071C6.20397 6.32719 6.13631 6.48606 6.018 6.60321C4.46646 8.17339 3.59748 10.2926 3.6 12.5C3.6 14.888 4.596 17.0432 6.1968 18.572C6.25833 18.6293 6.30788 18.6982 6.34261 18.7748C6.37733 18.8513 6.39653 18.934 6.3991 19.0181C6.40166 19.1021 6.38754 19.1858 6.35756 19.2643C6.32757 19.3429 6.28231 19.4147 6.2244 19.4756C6.12117 19.5822 5.98042 19.6444 5.83207 19.6489C5.68372 19.6534 5.53948 19.5998 5.43 19.4996C4.47237 18.6027 3.70926 17.5186 3.18803 16.3145C2.66681 15.1104 2.39858 13.8121 2.4 12.5C2.4 9.84321 3.48 7.43841 5.2236 5.70081ZM17.982 6.60321C17.8639 6.4859 17.7964 6.32694 17.7942 6.16046C17.7919 5.99398 17.8551 5.83326 17.97 5.71281C18.0755 5.60451 18.2196 5.54243 18.3707 5.54018C18.5219 5.53793 18.6678 5.59569 18.7764 5.70081C19.6724 6.59179 20.3831 7.65128 20.8677 8.81821C21.3523 9.98515 21.6012 11.2365 21.6 12.5C21.6 15.26 20.436 17.7488 18.57 19.4996C18.4605 19.5998 18.3163 19.6534 18.1679 19.6489C18.0196 19.6444 17.8788 19.5822 17.7756 19.4756C17.7179 19.4147 17.6728 19.343 17.6429 19.2645C17.613 19.1861 17.5989 19.1025 17.6015 19.0187C17.6041 18.9348 17.6232 18.8522 17.6578 18.7758C17.6925 18.6993 17.7419 18.6305 17.8032 18.5732C18.6251 17.7898 19.2791 16.8474 19.7255 15.8034C20.1719 14.7594 20.4014 13.6355 20.4 12.5C20.4028 10.2922 19.5338 8.17369 17.982 6.60321ZM7.3584 7.80801C7.46534 7.70617 7.60835 7.65098 7.75598 7.65458C7.90361 7.65818 8.04376 7.72027 8.1456 7.82721C8.3952 8.07681 8.37 8.48721 8.124 8.73921C7.1464 9.74701 6.59976 11.096 6.6 12.5C6.6 14.048 7.2516 15.4448 8.2968 16.43C8.5608 16.6784 8.5968 17.1032 8.3388 17.3612C8.2399 17.464 8.10525 17.5249 7.96272 17.5311C7.82019 17.5374 7.68072 17.4886 7.5732 17.3948C6.88902 16.7761 6.34212 16.0208 5.96781 15.1777C5.59349 14.3347 5.40006 13.4225 5.4 12.5C5.39868 11.6271 5.57117 10.7626 5.9074 9.95709C6.24364 9.15152 6.73689 8.42096 7.3584 7.80801ZM15.876 8.73921C15.63 8.48721 15.6048 8.07681 15.8544 7.82721C15.9562 7.72027 16.0964 7.65818 16.244 7.65458C16.3917 7.65098 16.5347 7.70617 16.6416 7.80801C17.2631 8.42096 17.7564 9.15152 18.0926 9.95709C18.4288 10.7626 18.6013 11.6271 18.6 12.5C18.6003 13.4226 18.4071 14.3349 18.033 15.1782C17.6589 16.0215 17.1121 16.7771 16.428 17.396C16.32 17.4902 16.1799 17.539 16.0368 17.5323C15.8937 17.5256 15.7587 17.4639 15.66 17.36C15.4032 17.1032 15.4392 16.6784 15.7032 16.43C16.239 15.9252 16.6659 15.3162 16.9577 14.6403C17.2494 13.9645 17.4 13.2361 17.4 12.5C17.4002 11.096 16.8536 9.74701 15.876 8.73921ZM12 11C11.6022 11 11.2206 11.158 10.9393 11.4393C10.658 11.7207 10.5 12.1022 10.5 12.5C10.5 12.8978 10.658 13.2794 10.9393 13.5607C11.2206 13.842 11.6022 14 12 14C12.3978 14 12.7794 13.842 13.0607 13.5607C13.342 13.2794 13.5 12.8978 13.5 12.5C13.5 12.1022 13.342 11.7207 13.0607 11.4393C12.7794 11.158 12.3978 11 12 11Z" fill="white"/>
</svg>
