<svg xmlns="http://www.w3.org/2000/svg" fill="none" viewBox="0 0 25 24">
  <path fill="#161616" d="M5.599 5.2a.571.571 0 0 1 .807.013.636.636 0 0 1-.013.89A8.376 8.376 0 0 0 3.975 12a8.37 8.37 0 0 0 2.597 6.072.636.636 0 0 1 .027.904.57.57 0 0 1-.794.024 9.576 9.576 0 0 1-3.03-7 9.57 9.57 0 0 1 2.824-6.8Zm12.758.903a.636.636 0 0 1-.012-.89.571.571 0 0 1 .806-.012A9.577 9.577 0 0 1 21.975 12a9.57 9.57 0 0 1-3.03 7 .57.57 0 0 1-.794-.024.637.637 0 0 1 .027-.903A8.375 8.375 0 0 0 20.775 12a8.373 8.373 0 0 0-2.418-5.897ZM7.733 7.308a.557.557 0 0 1 .788.02c.25.249.224.66-.022.911a5.4 5.4 0 0 0 .173 7.691c.264.248.3.673.042.931a.556.556 0 0 1-.766.034 6.6 6.6 0 0 1-.215-9.587Zm8.518.931c-.246-.252-.271-.662-.022-.912a.557.557 0 0 1 .788-.019A6.576 6.576 0 0 1 18.975 12a6.6 6.6 0 0 1-2.172 4.896.555.555 0 0 1-.768-.036c-.257-.257-.22-.682.043-.93a5.4 5.4 0 0 0 .173-7.69ZM12.375 10.5a1.5 1.5 0 1 0 0 3 1.5 1.5 0 0 0 0-3Z"/>
</svg>
