<svg xmlns="http://www.w3.org/2000/svg" width="24" height="24" fill="none" viewBox="0 0 24 24">
  <path stroke="#161616" stroke-linecap="round" stroke-linejoin="round" d="M6 12h.015v.015H6V12Z"/>
  <path stroke="#161616" stroke-linecap="round" stroke-linejoin="round" d="M6.75 12a.75.75 0 1 1-1.5 0 .75.75 0 0 1 1.5 0ZM12 12h.015v.015H12V12Z"/>
  <path stroke="#161616" stroke-linecap="round" stroke-linejoin="round" d="M12.75 12a.75.75 0 1 1-1.5 0 .75.75 0 0 1 1.5 0Zm5.235 0H18v.015h-.015V12Z"/>
  <path stroke="#161616" stroke-linecap="round" stroke-linejoin="round" d="M18.735 12a.75.75 0 1 1-1.5 0 .75.75 0 0 1 1.5 0Z"/>
</svg>
