<svg xmlns="http://www.w3.org/2000/svg"   fill="none" viewBox="0 0 25 25">
  <path fill="#161616" d="m16.83 8.853.631-.632a.503.503 0 0 0-.71-.711l-.633.632.711.711Zm-.8-7.159a26.282 26.282 0 0 1 7.248 7.244c.279-2.361-.276-4.31-1.605-5.64-1.094-1.092-2.658-1.67-4.523-1.67-.363 0-.74.022-1.12.066Zm-2.22 10.178.855-.855-.71-.71-.856.854.711.71Zm-.43-4.807a.5.5 0 0 0-.503.502.5.5 0 0 0 .147.356l4.025 4.025a.499.499 0 0 0 .858-.356.5.5 0 0 0-.147-.356l-4.025-4.024a.5.5 0 0 0-.356-.147Zm-2.588 7.826.855-.855-.711-.711-.855.855.711.71Zm-.431-4.808a.503.503 0 0 0-.356.858l4.025 4.025a.5.5 0 0 0 .711 0 .5.5 0 0 0 0-.71l-4.024-4.026a.499.499 0 0 0-.356-.147Zm-3.076 6.892a.5.5 0 0 0 0 .712.5.5 0 0 0 .71 0l.633-.633-.71-.71-.633.631Zm-.298-3.726a.503.503 0 0 0 0 .711l4.024 4.025a.5.5 0 0 0 .356.147.499.499 0 0 0 .503-.503.499.499 0 0 0-.148-.355l-4.024-4.025a.5.5 0 0 0-.356-.147.5.5 0 0 0-.355.147Zm-1.159 6.62a25.152 25.152 0 0 0 4.367 3.36c2.78-.694 5.627-2.394 8.021-4.788 2.394-2.394 4.094-5.242 4.788-8.021a25.128 25.128 0 0 0-3.36-4.366L18.488 7.21a1.528 1.528 0 0 1-.3 1.738l-.633.632.93.93a1.532 1.532 0 0 1 0 2.164 1.52 1.52 0 0 1-1.081.447 1.52 1.52 0 0 1-1.082-.447l-.93-.93-.855.854.93.93a1.532 1.532 0 0 1-1.081 2.612 1.52 1.52 0 0 1-1.082-.447l-.93-.931-.856.855.93.93c.29.29.449.674.449 1.082 0 .409-.16.793-.448 1.082a1.52 1.52 0 0 1-1.082.448 1.52 1.52 0 0 1-1.082-.448l-.93-.93-.633.632a1.52 1.52 0 0 1-1.082.447 1.54 1.54 0 0 1-.655-.147L5.828 19.87ZM1.47 16.255c-.271 2.335.297 4.335 1.605 5.643 1.095 1.095 2.652 1.674 4.502 1.674.368 0 .75-.023 1.137-.069a26.277 26.277 0 0 1-7.244-7.248ZM7.572 24.6c-2.125 0-3.932-.683-5.224-1.976C.738 21.014.08 18.58.498 15.768.9 13.058 2.275 10.16 4.37 7.609a.512.512 0 0 1 .723-.07c.219.18.25.503.071.722-1.684 2.05-2.866 4.302-3.42 6.512a25.149 25.149 0 0 0 3.358 4.37l1.156-1.156a1.514 1.514 0 0 1-.148-.656c0-.409.16-.793.448-1.082l.633-.632-.93-.93a1.532 1.532 0 0 1 1.081-2.612c.41 0 .794.159 1.082.448l.93.93.855-.855-.93-.93a1.532 1.532 0 0 1 0-2.164 1.52 1.52 0 0 1 1.082-.447c.409 0 .793.159 1.082.447l.93.93.855-.854-.93-.93a1.52 1.52 0 0 1-.449-1.083c0-.408.16-.793.448-1.082a1.52 1.52 0 0 1 1.082-.448c.41 0 .793.16 1.082.448l.93.931.633-.632a1.519 1.519 0 0 1 1.081-.447c.227 0 .453.05.657.147l1.156-1.157a25.149 25.149 0 0 0-4.37-3.359c-2.205.554-4.452 1.732-6.499 3.41a.512.512 0 0 1-.837-.448.511.511 0 0 1 .186-.346c2.55-2.09 5.445-3.462 8.152-3.863a11 11 0 0 1 1.602-.12c2.142 0 3.957.681 5.247 1.972 1.785 1.785 2.388 4.516 1.697 7.69-.674 3.093-2.504 6.255-5.154 8.905-2.65 2.65-5.812 4.48-8.904 5.153-.85.185-1.68.28-2.466.28Z"/>
  <path fill="#161616" d="M6.125 7.1a.75.75 0 0 1 0-1.5.75.75 0 0 1 0 1.5Z"/>
</svg>
