<svg xmlns="http://www.w3.org/2000/svg"   fill="none" viewBox="0 0 25 25">
  <path fill="#161616" d="M5.884 9.197a14.617 14.617 0 0 1 2.432 3.323c.341.64.894 1.156 1.556 1.452l3.305 1.482a.54.54 0 0 0 .72-.274.544.544 0 0 0-.19-.672l-1.73-1.185a1.133 1.133 0 0 1-.481-.753 1.134 1.134 0 0 1 .208-.87 1.15 1.15 0 0 1 1.321-.39l6.555 2.46a.586.586 0 0 0 .716-.264.583.583 0 0 0-.206-.781l-4.079-2.492a5.635 5.635 0 0 0-2.25-.787l-2.064-.26a3.98 3.98 0 0 1-2.692-1.573L4.754 1.868 1.509 4.713l4.375 4.484Zm7.656 7.99v-.664a1.562 1.562 0 0 1-.784-.132l-.627-.28v1.077h1.411Zm-6.252-3.435c-1.55 1.089-2.403 2.487-2.403 3.95 0 1.323.683 2.577 1.976 3.626a7.8 7.8 0 0 0 .427.322 17.433 17.433 0 0 1 0-7.897Zm13.659.587a17.47 17.47 0 0 1-.127 7.31c.149-.104.292-.212.427-.321 1.293-1.049 1.976-2.303 1.976-3.627 0-1.331-.724-2.635-2.04-3.677-.065.114-.144.22-.236.315ZM16.148 24.45a.516.516 0 0 1-.411-.82.51.51 0 0 1 .338-.202c1.246-.181 2.451-.542 3.486-1.044a16.33 16.33 0 0 0 .683-4.683c0-.966-.085-1.935-.254-2.882a1.587 1.587 0 0 1-.772-.087l-6.555-2.46a.117.117 0 0 0-.155.128.114.114 0 0 0 .049.076l1.73 1.185a1.57 1.57 0 0 1 .28 2.349v1.178h1.411v-1.32a.514.514 0 0 1 1.027 0v1.32h1.085a.514.514 0 0 1 0 1.027h-1.085v1.32a.514.514 0 0 1-1.027 0v-1.32h-1.411v1.32a.514.514 0 0 1-1.028 0v-1.32H12.13v1.32a.514.514 0 0 1-1.028 0v-1.32h-1.085a.514.514 0 0 1 0-1.027h1.085v-1.32c0-.07.014-.138.04-.2l-1.69-.758a4.299 4.299 0 0 1-1.192-.799 16.414 16.414 0 0 0 .287 8.273c1.035.502 2.24.863 3.486 1.044a.511.511 0 0 1 .434.582.516.516 0 0 1-.582.435c-2.209-.322-4.223-1.145-5.67-2.32-1.52-1.232-2.356-2.803-2.356-4.424 0-.983.296-1.931.88-2.82.573-.873 1.395-1.642 2.443-2.287a13.6 13.6 0 0 0-2.033-2.68L.396 5.045a.517.517 0 0 1 .029-.746l4.07-3.57a.514.514 0 0 1 .752.08l4.584 6.194a2.95 2.95 0 0 0 1.993 1.166l2.065.259a6.652 6.652 0 0 1 2.658.93l4.078 2.492c.38.231.64.596.735 1.028 1.864 1.29 2.89 3.003 2.89 4.824 0 1.621-.837 3.192-2.356 4.424-1.448 1.175-3.461 1.998-5.67 2.32a.528.528 0 0 1-.075.005Z"/>
  <path fill="#161616" d="M14.054 24.6a.514.514 0 1 1 .001-1.028.514.514 0 0 1-.001 1.028Z"/>
</svg>
