<svg width="24" height="24" viewBox="0 0 24 24" fill="none" xmlns="http://www.w3.org/2000/svg">
<g id="icon">
<g id="Vector">
<path fill-rule="evenodd" clip-rule="evenodd" d="M1.5963 13.1509C2.23193 18.8967 7.4051 23.0393 13.1509 22.4037C18.8967 21.7681 23.0393 16.5949 22.4037 10.8491C22.3572 10.4287 22.6603 10.0501 23.0807 10.0036C23.5012 9.95711 23.8797 10.2602 23.9262 10.6807C24.6548 17.2673 19.906 23.1975 13.3193 23.9262C6.73268 24.6548 0.802454 19.906 0.0738049 13.3193C-0.654844 6.73267 4.09401 0.802438 10.6807 0.0737893C14.9369 -0.397053 18.9183 1.41988 21.3986 4.53834C21.6619 4.86939 21.607 5.35121 21.276 5.61451C20.9449 5.87781 20.4631 5.82289 20.1998 5.49184C18.0334 2.76805 14.5604 1.18572 10.8491 1.59628C5.10329 2.23191 0.960668 7.40509 1.5963 13.1509Z" fill="#4B4B4B"/>
<path d="M22.4037 7.00346C22.7891 6.96083 23.1361 7.23869 23.1787 7.62408C23.2213 8.00947 22.9435 8.35645 22.5581 8.39908C22.1727 8.44172 21.8257 8.16386 21.7831 7.77847C21.7405 7.39308 22.0183 7.0461 22.4037 7.00346Z" fill="#4B4B4B"/>
<path d="M13.386 7.00346C13.386 7.70845 12.8145 8.27995 12.1095 8.27995C11.4045 8.27995 10.833 7.70845 10.833 7.00346C10.833 6.29848 11.4045 5.72698 12.1095 5.72698C12.8145 5.72698 13.386 6.29848 13.386 7.00346Z" fill="#4B4B4B"/>
<path d="M10.833 11.0882C10.833 10.3832 11.4045 9.81173 12.1095 9.81173C12.8145 9.81173 13.386 10.3832 13.386 11.0882V16.7047C13.386 17.4097 12.8145 17.9812 12.1095 17.9812C11.4045 17.9812 10.833 17.4097 10.833 16.7047V11.0882Z" fill="#4B4B4B"/>
</g>
</g>
</svg>
