<svg xmlns="http://www.w3.org/2000/svg" width="24" height="25" fill="none" viewBox="0 0 24 25">
  <path fill="#161616" d="M17.66 10.055a.119.119 0 0 0 .03.004.118.118 0 0 0 .028-.004l1.26-.92a5.245 5.245 0 0 0-2.578 0l1.26.92Zm-1.84 2.555 1.356-.787v-.856a.917.917 0 0 1-.12-.076l-1.803-1.316a5.329 5.329 0 0 0-.405.237l.23 2.23a.959.959 0 0 1 .006.14l.737.428Zm3.738 0 .736-.428a.97.97 0 0 1 .006-.142l.23-2.228a5.343 5.343 0 0 0-.405-.237l-1.803 1.316a.891.891 0 0 1-.12.076v.856l1.356.787Zm-5.662-2.015a5.335 5.335 0 0 0-1.289 2.243l1.42-.638a.106.106 0 0 0 .017-.022.122.122 0 0 0 .013-.03l-.16-1.553Zm8.875 2.243a5.33 5.33 0 0 0-1.289-2.243l-.16 1.552a.123.123 0 0 0 .03.054l1.42.637Zm-8.326 2.603c.041.018.084.04.126.067l.736-.428v-1.575l-.736-.428a.945.945 0 0 1-.125.067l-2.035.913a5.357 5.357 0 0 0 0 .471l2.034.913Zm6.363.067a.89.89 0 0 1 .125-.066l2.035-.914a5.691 5.691 0 0 0 0-.47l-2.037-.915a.967.967 0 0 1-.124-.066l-.735.428v1.576l.736.427Zm-3.119.36 1.356-.787v-1.576l-1.356-.788-1.355.788v1.576l1.355.787Zm-5.082-.12a5.33 5.33 0 0 0 1.29 2.242l.16-1.552a.126.126 0 0 0-.028-.052l-1.422-.638Zm8.875 2.242a5.333 5.333 0 0 0 1.29-2.242l-1.421.638a.12.12 0 0 0-.03.052l.161 1.552Zm-6.634.783c.132.085.268.165.406.237l1.802-1.316a.925.925 0 0 1 .12-.075v-.856l-1.355-.788-.737.428a.927.927 0 0 1-.005.142l-.23 2.228Zm3.355-1.154a.912.912 0 0 1 .12.076l1.802 1.315c.137-.072.273-.152.405-.237l-.23-2.229a.926.926 0 0 1-.006-.141l-.736-.428-1.355.788v.856Zm-1.802 1.83a5.254 5.254 0 0 0 2.576 0l-1.259-.919a.115.115 0 0 0-.029-.003.116.116 0 0 0-.029.003l-1.259.919Zm1.288 1.193a6.216 6.216 0 0 1-2.64-.582 6.328 6.328 0 0 1-.988-.575h-.001a6.372 6.372 0 0 1-2.649-4.543v-.002a.568.568 0 0 1-.004-.043v-.001a6.43 6.43 0 0 1 .004-1.25 6.375 6.375 0 0 1 2.55-4.474l.034-.024.003-.003c.019-.014.037-.028.056-.04a6.307 6.307 0 0 1 1.007-.585l.011-.006.057-.025a6.216 6.216 0 0 1 2.56-.547 6.215 6.215 0 0 1 2.63.578 6.312 6.312 0 0 1 1.076.635l.022.017a6.373 6.373 0 0 1 2.554 4.516v.001a6.437 6.437 0 0 1 0 1.207v.002a6.37 6.37 0 0 1-3.73 5.202 6.227 6.227 0 0 1-2.552.542Z"/>
  <path fill="#161616" d="m11.056 7.4 2.54-5.767H9.458L7.587 6.09l3.469 1.31ZM1.36 17.17c-.247.595-.36 1.078-.328 1.398.025.237.122.278.175.3l4.9 2.047L1.36 17.17Zm8.892 5.477.006.003.006.002.668.28 1.453.606c.035-.238-.047-.822-.418-1.37l-1.25-1.644-.484.36a.507.507 0 0 1-.718-.11.515.515 0 0 1 .108-.722l.47-.349-.681-.896-.749.555a.515.515 0 0 1-.61-.832l.735-.544-.658-.866c-.03-.024-.096-.053-.243-.053-.199 0-.463.051-.675.092-.115.022-.234.045-.35.063-.31.047-.611.072-.897.072-1.574 0-2.702-.72-3.176-2.024a4.07 4.07 0 0 1-.109-.352 9.512 9.512 0 0 0-.858 1.304l7.826 6.173.604.252Zm2.22 1.953a1.17 1.17 0 0 1-.455-.098l-1.478-.616-.202-.084a.513.513 0 0 1-.942-.018.516.516 0 0 1-.006-.378l-.81-.338-.05.121a.513.513 0 1 1-.948-.397l.05-.12-3.416-1.428-.05.122a.512.512 0 0 1-.95-.002.516.516 0 0 1 0-.396l.051-.12-1.346-.564-.05.123a.513.513 0 0 1-.95-.002.516.516 0 0 1 .001-.396l.05-.121-.158-.066c-.37-.154-.964-.594-.778-1.798.155-.998.77-2.124 1.123-2.707.237-.391.49-.759.714-1.034.332-.411.547-.572.792-.593a.896.896 0 0 1 .564.118l.91-2.166a.513.513 0 1 1 .947.402l-1.271 3.024c.349.793 1.065 1.195 2.128 1.195.24 0 .496-.021.763-.062.1-.016.208-.037.314-.057l.006-.001.198-.037 3.417-7.76-3.454-1.303-.47 1.118a.513.513 0 0 1-.673.275.518.518 0 0 1-.273-.677L8.645.916A.513.513 0 0 1 9.118.6h5.266a.518.518 0 0 1 .47.726L8.35 16.094a1.148 1.148 0 0 1 .574.371l3.866 5.085.016.021c.283.415.492.932.573 1.418.09.54.011.997-.22 1.284a.855.855 0 0 1-.688.327Z"/>
  <path fill="#161616" d="M5.425 10.42a.516.516 0 0 1 0-1.034.517.517 0 0 1 0 1.035Z"/>
</svg>
