<svg xmlns="http://www.w3.org/2000/svg" width="25" height="25" fill="none" viewBox="0 0 25 25">
  <path fill="#161616" d="M20.596 21.614a.522.522 0 0 1-.483-.34.514.514 0 1 1 .987-.073.522.522 0 0 1-.504.413Z"/>
  <path fill="#161616" d="M2.75 8.363a4.89 4.89 0 0 1 3.593 1.598l.015.017a4.867 4.867 0 0 1 1.254 3.13A5.58 5.58 0 0 0 9.08 16.73a5.555 5.555 0 0 0 4.12 1.82 5.58 5.58 0 0 0 3.747-1.45l.007-.008c.02-.018.04-.035.058-.053l.004-.003a5.553 5.553 0 0 0 1.767-3.844 5.553 5.553 0 0 0-1.44-3.985 5.587 5.587 0 0 0-3.43-1.793 4.874 4.874 0 0 1-2.992-1.56l-.015-.017a4.864 4.864 0 0 1-1.233-3.733 11.043 11.043 0 0 0-4.158 2.359 11.042 11.042 0 0 0-2.765 3.9Zm-.027 2.225c.753 0 1.47.316 1.969.866l.015.017c.422.466.663 1.069.68 1.697a7.807 7.807 0 0 0 2.051 5.065 7.762 7.762 0 0 0 5.765 2.542 7.791 7.791 0 0 0 5.332-2.115c3.097-2.892 3.303-7.803.458-10.947a7.815 7.815 0 0 0-4.797-2.508 2.642 2.642 0 0 1-1.625-.846l-.015-.017a2.643 2.643 0 0 1-.636-2.251c.027-.14.05-.284.072-.429-.417.034-.834.091-1.243.171l-.007.036a3.848 3.848 0 0 0 .925 3.278l.015.016a3.844 3.844 0 0 0 2.362 1.231c1.56.2 3.003.954 4.06 2.123a6.575 6.575 0 0 1 1.704 4.717 6.572 6.572 0 0 1-2.172 4.625 6.606 6.606 0 0 1-4.745 1.71 6.576 6.576 0 0 1-4.57-2.146 6.608 6.608 0 0 1-1.736-4.287 3.839 3.839 0 0 0-.989-2.47l-.015-.016a3.86 3.86 0 0 0-3.186-1.246l-.02.001c-.12.4-.22.81-.294 1.22.14-.007.28-.016.416-.027.075-.007.15-.01.226-.01ZM12.883 24.6a11.95 11.95 0 0 1-4.81-1.004 11.927 11.927 0 0 1-4.097-2.95A11.986 11.986 0 0 1 .97 11.083v-.002c.1-.791.28-1.575.535-2.33l.001-.003a12.004 12.004 0 0 1 8.66-7.841l.017-.004a12.054 12.054 0 0 1 2.375-.3h.004A11.938 11.938 0 0 1 17.74 1.63c1.543.684 2.9 1.667 4.034 2.92 3.855 4.26 4.147 10.677.695 15.258l-.035.046a.51.51 0 0 1-.72.097.514.514 0 0 1-.097-.72l.032-.04c3.155-4.19 2.888-10.057-.637-13.952a11.005 11.005 0 0 0-7.98-3.61c-.028.22-.063.44-.104.654-.092.488.053 1 .389 1.371l.015.017c.257.284.61.468.994.517a8.843 8.843 0 0 1 5.428 2.837 8.786 8.786 0 0 1 2.277 6.305 8.786 8.786 0 0 1-2.795 6.082 8.816 8.816 0 0 1-6.383 2.384 8.782 8.782 0 0 1-6.173-2.869 8.834 8.834 0 0 1-2.321-5.73 1.61 1.61 0 0 0-.415-1.036l-.015-.017a1.597 1.597 0 0 0-1.346-.522c-.212.018-.427.03-.641.037a11.001 11.001 0 0 0 2.795 8.298 11.006 11.006 0 0 0 8.145 3.617c2.035 0 4.026-.567 5.759-1.64a.512.512 0 0 1 .77.555.51.51 0 0 1-.23.318 11.959 11.959 0 0 1-6.298 1.794h-.001Z"/>
</svg>
