<svg xmlns="http://www.w3.org/2000/svg" width="25" height="25" fill="none" viewBox="0 0 25 25">
  <g clip-path="url(#a)">
    <path fill="#161616" d="M16.125 2.15V3.4h5.25a.75.75 0 1 1 0 1.5h-18.5a.75.75 0 0 1 0-1.5h5.25V2.15c0-.966.784-1.75 1.75-1.75h4.5c.966 0 1.75.784 1.75 1.75Zm-6.5 0V3.4h5V2.15a.25.25 0 0 0-.25-.25h-4.5a.25.25 0 0 0-.25.25ZM5.122 6.578a.75.75 0 1 0-1.493.144L5.041 21.32a1.75 1.75 0 0 0 1.742 1.58h10.684a1.75 1.75 0 0 0 1.742-1.581l1.413-14.597a.75.75 0 1 0-1.494-.144l-1.412 14.596a.25.25 0 0 1-.249.226H6.783a.25.25 0 0 1-.249-.226L5.122 6.578Z"/>
    <path fill="#161616" d="M9.331 7.901a.75.75 0 0 1 .793.705l.5 8.5a.751.751 0 0 1-1.499.088l-.5-8.5a.75.75 0 0 1 .705-.793h.001Zm6.293.793a.751.751 0 0 0-1.499-.088l-.5 8.5a.75.75 0 1 0 1.498.088l.501-8.5Z"/>
  </g>
  <defs>
    <clipPath id="a">
      <path fill="#fff" d="M.125.4h24v24h-24z"/>
    </clipPath>
  </defs>
</svg>
