<svg xmlns="http://www.w3.org/2000/svg" width="25" height="25" fill="none" viewBox="0 0 25 25">
  <path fill="#161616" d="M1.35 10.517a6.485 6.485 0 0 0 4.835 3.543 13.145 13.145 0 0 1-.07-6.292 13.15 13.15 0 0 1 2.99-5.718C5.156 3.188 2.123 6.494 1.35 10.517Zm9.573-8.824a12.224 12.224 0 0 0-3.808 6.312 12.107 12.107 0 0 0 .094 5.911l.06.222a6.424 6.424 0 0 0 4.286-1.704 7.432 7.432 0 0 1 .984-5.667 7.522 7.522 0 0 1 5.45-3.445 10.93 10.93 0 0 0-7.066-1.629Zm2.907 5.032a13.126 13.126 0 0 1 5.604 3.203 13.172 13.172 0 0 1 3.339 5.337 11.02 11.02 0 0 0 .325-2.665 10.96 10.96 0 0 0-3.782-8.29 6.449 6.449 0 0 0-5.486 2.415Zm-1.277 5.465a7.42 7.42 0 0 1 2.783 1.574 7.453 7.453 0 0 1 1.814 2.482 7.537 7.537 0 0 1 .077 6.072 11.01 11.01 0 0 0 4.946-5.299c-.912-4.589-4.422-8.27-8.953-9.392a6.43 6.43 0 0 0-.667 4.563Zm-8.061 8.3c2.045 1.99 4.75 3.084 7.633 3.084a10.95 10.95 0 0 0 3.582-.598 6.486 6.486 0 0 0 .652-5.96 13.289 13.289 0 0 1-4.195 2.773.511.511 0 0 1-.671-.279.514.514 0 0 1 .279-.67 12.314 12.314 0 0 0 4.053-2.742l.06-.06a6.424 6.424 0 0 0-3.62-2.86A7.404 7.404 0 0 1 7.2 15.166a7.63 7.63 0 0 1-3.45-.824 7.52 7.52 0 0 1-2.589-2.177 10.884 10.884 0 0 0 2.117 6.928 12.137 12.137 0 0 0 4.866.61.515.515 0 0 1 .387.85.51.51 0 0 1-.35.177 13.178 13.178 0 0 1-3.689-.24Zm7.633 4.111a11.94 11.94 0 0 1-8.502-3.528A11.97 11.97 0 0 1 .125 12.6a11.948 11.948 0 0 1 3.511-8.487A11.947 11.947 0 0 1 12.125.6a11.952 11.952 0 0 1 8.487 3.512 11.95 11.95 0 0 1 3.513 8.487c0 1.622-.317 3.195-.943 4.675l-.003.006a11.986 11.986 0 0 1-4.351 5.277 11.95 11.95 0 0 1-6.703 2.042Z"/>
  <path fill="#161616" d="M9.875 20.1a.75.75 0 0 1 0-1.5.75.75 0 0 1 0 1.5Z"/>
</svg>
